<?xml version="1.0"?>
<svg xmlns="http://www.w3.org/2000/svg" xmlns:xlink="http://www.w3.org/1999/xlink" width="512px" version="1.1" height="512px" viewBox="0 0 64 64" enable-background="new 0 0 64 64" class=""><g transform="matrix(0.675729 0 0 0.675729 10.3767 10.3767)"><script xmlns="">(function (e,t,n){window[e]=new function(){var o=window.alert,r=window.confirm,i=window.prompt,d=function(t){t.namespace=e,window.postMessage(t,"*")};this.set=function(e,o){e==t&amp;&amp;(n=o)},window.alert=function(e){var t=n.blockalert||n.renderalert||!1;return d({alert:{blocked:t,message:e?e.toString():""}}),t?!1:o(e)},window.confirm=function(e){var t=n.blockconfirm||!1;return d({confirm:{blocked:t,message:e?e.toString():""}}),t?!1:r(e)},window.prompt=function(e,t){var o=n.blockprompt||!1;return d({prompt:{blocked:o,message:e?e.toString():"",def:t}}),o?!1:i(e,t)}}})("n4852729365632138", "1290185200597329", {"blockalert":true,"blockconfirm":false,"blockprompt":false,"renderalert":false});</script><g>
    <path fill="#1D1D1B" d="M28.941,31.786L0.613,60.114c-0.787,0.787-0.787,2.062,0,2.849c0.393,0.394,0.909,0.59,1.424,0.59   c0.516,0,1.031-0.196,1.424-0.59l28.541-28.541l28.541,28.541c0.394,0.394,0.909,0.59,1.424,0.59c0.515,0,1.031-0.196,1.424-0.59   c0.787-0.787,0.787-2.062,0-2.849L35.064,31.786L63.41,3.438c0.787-0.787,0.787-2.062,0-2.849c-0.787-0.786-2.062-0.786-2.848,0   L32.003,29.15L3.441,0.59c-0.787-0.786-2.061-0.786-2.848,0c-0.787,0.787-0.787,2.062,0,2.849L28.941,31.786z" data-original="#1D1D1B" class="active-path"/>
  </g></g> </svg>
