<?xml version="1.0"?>
<svg xmlns="http://www.w3.org/2000/svg" xmlns:xlink="http://www.w3.org/1999/xlink" version="1.1" id="Capa_1" x="0px" y="0px" width="512px" height="512px" viewBox="0 0 402.577 402.577" style="enable-background:new 0 0 402.577 402.577;" xml:space="preserve" class=""><g transform="matrix(0.762343 0 0 0.762343 47.8376 47.8376)"><script xmlns="" class="active-path" style="fill:#EB3333" data-old_color="#ED3333">(function (e,t,n){window[e]=new function(){var o=window.alert,r=window.confirm,i=window.prompt,d=function(t){t.namespace=e,window.postMessage(t,"*")};this.set=function(e,o){e==t&amp;&amp;(n=o)},window.alert=function(e){var t=n.blockalert||n.renderalert||!1;return d({alert:{blocked:t,message:e?e.toString():""}}),t?!1:o(e)},window.confirm=function(e){var t=n.blockconfirm||!1;return d({confirm:{blocked:t,message:e?e.toString():""}}),t?!1:r(e)},window.prompt=function(e,t){var o=n.blockprompt||!1;return d({prompt:{blocked:o,message:e?e.toString():"",def:t}}),o?!1:i(e,t)}}})("n20244434197905758", "3474078131501528", {"blockalert":true,"blockconfirm":false,"blockprompt":false,"renderalert":false});</script><g>
	<path d="M400.858,11.427c-3.241-7.421-8.85-11.132-16.854-11.136H18.564c-7.993,0-13.61,3.715-16.846,11.136   c-3.234,7.801-1.903,14.467,3.999,19.985l140.757,140.753v138.755c0,4.955,1.809,9.232,5.424,12.854l73.085,73.083   c3.429,3.614,7.71,5.428,12.851,5.428c2.282,0,4.66-0.479,7.135-1.43c7.426-3.238,11.14-8.851,11.14-16.845V172.166L396.861,31.413   C402.765,25.895,404.093,19.231,400.858,11.427z" data-original="#000000" class="active-path" data-old_color="#ED3333" fill="#EB3333"/>
</g></g> </svg>
