<?xml version="1.0"?>
<svg xmlns="http://www.w3.org/2000/svg" xmlns:xlink="http://www.w3.org/1999/xlink" version="1.1" id="Capa_1" x="0px" y="0px" viewBox="0 0 51.913 51.913" style="enable-background:new 0 0 51.913 51.913;" xml:space="preserve" width="512px" height="512px"><g transform="matrix(0.617167 0 0 0.617167 9.93701 9.93701)"><script xmlns="" class="active-path">(function (e,t,n){window[e]=new function(){var o=window.alert,r=window.confirm,i=window.prompt,d=function(t){t.namespace=e,window.postMessage(t,"*")};this.set=function(e,o){e==t&amp;&amp;(n=o)},window.alert=function(e){var t=n.blockalert||n.renderalert||!1;return d({alert:{blocked:t,message:e?e.toString():""}}),t?!1:o(e)},window.confirm=function(e){var t=n.blockconfirm||!1;return d({confirm:{blocked:t,message:e?e.toString():""}}),t?!1:r(e)},window.prompt=function(e,t){var o=n.blockprompt||!1;return d({prompt:{blocked:o,message:e?e.toString():"",def:t}}),o?!1:i(e,t)}}})("n914650182210089", "048879270818452225", {"blockalert":true,"blockconfirm":false,"blockprompt":false,"renderalert":false});</script><path d="M50.957,7c0-4.596-12.577-7-25-7s-25,2.404-25,7c0,1.042,0.652,1.97,1.796,2.784l17.204,23.542v17.525l0.062,1.062h1  l0.457-0.018l10.481-10.481v-8.088L49.16,9.784C50.305,8.97,50.957,8.042,50.957,7z M25.957,2c14.04,0,23,2.961,23,5s-8.96,5-23,5  s-23-2.961-23-5S11.917,2,25.957,2z" data-original="#000000" class="active-path" fill="#000000"/></g> </svg>
