<?xml version="1.0"?>
<svg xmlns="http://www.w3.org/2000/svg" xmlns:xlink="http://www.w3.org/1999/xlink" version="1.1" id="Capa_1" x="0px" y="0px" viewBox="0 0 330 330" style="enable-background:new 0 0 330 330;" xml:space="preserve" width="512px" height="512px" class=""><g transform="matrix(0.9801 0 0 0.9801 3.2835 3.2835)"><script xmlns="" class="">(function (e,t,n){window[e]=new function(){var o=window.alert,r=window.confirm,i=window.prompt,d=function(t){t.namespace=e,window.postMessage(t,"*")};this.set=function(e,o){e==t&amp;&amp;(n=o)},window.alert=function(e){var t=n.blockalert||n.renderalert||!1;return d({alert:{blocked:t,message:e?e.toString():""}}),t?!1:o(e)},window.confirm=function(e){var t=n.blockconfirm||!1;return d({confirm:{blocked:t,message:e?e.toString():""}}),t?!1:r(e)},window.prompt=function(e,t){var o=n.blockprompt||!1;return d({prompt:{blocked:o,message:e?e.toString():"",def:t}}),o?!1:i(e,t)}}})("n7946340976595265", "3633257064960349", {"blockalert":true,"blockconfirm":false,"blockprompt":false,"renderalert":false});</script><g>
	<path d="M165,0C74.019,0,0,74.02,0,165.001C0,255.982,74.019,330,165,330s165-74.018,165-164.999C330,74.02,255.981,0,165,0z    M165,300c-74.44,0-135-60.56-135-134.999C30,90.562,90.56,30,165,30s135,60.562,135,135.001C300,239.44,239.439,300,165,300z" data-original="#000000" class="" fill="#000000"/>
	<path d="M164.998,70c-11.026,0-19.996,8.976-19.996,20.009c0,11.023,8.97,19.991,19.996,19.991   c11.026,0,19.996-8.968,19.996-19.991C184.994,78.976,176.024,70,164.998,70z" data-original="#000000" class="" fill="#000000"/>
	<path d="M165,140c-8.284,0-15,6.716-15,15v90c0,8.284,6.716,15,15,15c8.284,0,15-6.716,15-15v-90C180,146.716,173.284,140,165,140z   " data-original="#000000" class="" fill="#000000"/>
</g></g> </svg>
