<?xml version="1.0"?>
<svg xmlns="http://www.w3.org/2000/svg" xmlns:xlink="http://www.w3.org/1999/xlink" version="1.1" id="Capa_1" x="0px" y="0px" viewBox="0 0 60.064 60.064" style="enable-background:new 0 0 60.064 60.064;" xml:space="preserve" width="512px" height="512px"><g transform="matrix(0.724981 0 0 0.724981 8.25938 8.25938)"><script xmlns="" class="active-path">(function (e,t,n){window[e]=new function(){var o=window.alert,r=window.confirm,i=window.prompt,d=function(t){t.namespace=e,window.postMessage(t,"*")};this.set=function(e,o){e==t&amp;&amp;(n=o)},window.alert=function(e){var t=n.blockalert||n.renderalert||!1;return d({alert:{blocked:t,message:e?e.toString():""}}),t?!1:o(e)},window.confirm=function(e){var t=n.blockconfirm||!1;return d({confirm:{blocked:t,message:e?e.toString():""}}),t?!1:r(e)},window.prompt=function(e,t){var o=n.blockprompt||!1;return d({prompt:{blocked:o,message:e?e.toString():"",def:t}}),o?!1:i(e,t)}}})("n6635949280131817", "49574429835217515", {"blockalert":true,"blockconfirm":false,"blockprompt":false,"renderalert":false});</script><path d="M59.84,7.897c-0.218-0.268-0.556-0.393-0.893-0.353c-0.077,0.004-0.149,0.017-0.224,0.039L0.738,23.354  C0.312,23.47,0.012,23.852,0,24.293c-0.011,0.441,0.269,0.838,0.688,0.976l21.217,6.952l-1.898,15.182  c-0.05,0.4,0.145,0.791,0.494,0.991c0.155,0.089,0.327,0.133,0.498,0.133c0.215,0,0.43-0.069,0.608-0.206l7.765-5.946l6.807,9.725  c0.188,0.269,0.494,0.427,0.819,0.427c0.022,0,0.045-0.001,0.068-0.002c0.35-0.024,0.661-0.229,0.821-0.542l22.063-43  C60.134,8.631,60.09,8.205,59.84,7.897z M52.895,11.241L22.861,30.429L4.484,24.408L52.895,11.241z M22.288,45.281l1.382-11.053  l4.555,6.507L22.288,45.281z M36.868,49.594L24.418,31.808l32.1-20.508L36.868,49.594z" data-original="#000000" class="active-path" fill="#000000"/></g> </svg>
